<svg width="33" height="32" viewBox="0 0 33 32" fill="none" xmlns="http://www.w3.org/2000/svg">
<path d="M5.48662 19.5467L3.45997 17.52C2.6333 16.6933 2.6333 15.3333 3.45997 14.5066L5.48662 12.4799C5.83328 12.1333 6.11329 11.4533 6.11329 10.9733V8.10657C6.11329 6.93324 7.07329 5.97327 8.24663 5.97327H11.1133C11.5933 5.97327 12.2733 5.69331 12.62 5.34664L14.6466 3.31995C15.4733 2.49328 16.8333 2.49328 17.66 3.31995L19.6866 5.34664C20.0333 5.69331 20.7133 5.97327 21.1933 5.97327H24.06C25.2333 5.97327 26.1933 6.93324 26.1933 8.10657V10.9733C26.1933 11.4533 26.4733 12.1333 26.8199 12.4799L28.8466 14.5066C29.6733 15.3333 29.6733 16.6933 28.8466 17.52L26.8199 19.5467C26.4733 19.8933 26.1933 20.5733 26.1933 21.0533V23.9199C26.1933 25.0932 25.2333 26.0533 24.06 26.0533H21.1933C20.7133 26.0533 20.0333 26.3333 19.6866 26.68L17.66 28.7067C16.8333 29.5333 15.4733 29.5333 14.6466 28.7067L12.62 26.68C12.2733 26.3333 11.5933 26.0533 11.1133 26.0533H8.24663C7.07329 26.0533 6.11329 25.0932 6.11329 23.9199V21.0533C6.11329 20.56 5.83328 19.88 5.48662 19.5467Z" stroke="#6B4A39" stroke-width="1.5" stroke-linecap="round" stroke-linejoin="round"/>
<path d="M12.1666 20L20.1666 12" stroke="#C9956B" stroke-width="1.5" stroke-linecap="round" stroke-linejoin="round"/>
<path d="M19.4926 19.3334H19.5046" stroke="#C9956B" stroke-width="2" stroke-linecap="round" stroke-linejoin="round"/>
<path d="M12.826 12.6667H12.8379" stroke="#C9956B" stroke-width="2" stroke-linecap="round" stroke-linejoin="round"/>
</svg>
