<svg width="33" height="32" viewBox="0 0 33 32" fill="none" xmlns="http://www.w3.org/2000/svg">
<path d="M3.66675 16.5467V10.4535C3.66675 8.86681 4.64008 7.45341 6.12008 6.89341L16.7067 2.89341C18.3601 2.26675 20.1334 3.49345 20.1334 5.26679V10.3334" stroke="#C9956B" stroke-width="1.5" stroke-linecap="round" stroke-linejoin="round"/>
<path d="M9.66675 16H19.0001" stroke="#C9956B" stroke-width="1.5" stroke-linecap="round" stroke-linejoin="round"/>
<path d="M24.3867 18.0666C23.8267 18.6132 23.5068 19.3999 23.5868 20.2399C23.7068 21.6799 25.0268 22.7332 26.4668 22.7332H29.0001V24.3199C29.0001 27.0799 26.7468 29.3333 23.9868 29.3333H10.5068C10.9201 28.9866 11.2801 28.5599 11.5601 28.0799C12.0534 27.2799 12.3334 26.3333 12.3334 25.3333C12.3334 22.3866 9.94675 19.9999 7.00008 19.9999C5.74675 19.9999 4.58675 20.4399 3.66675 21.1733V15.3466C3.66675 12.5866 5.92007 10.3333 8.68007 10.3333H23.9868C26.7468 10.3333 29.0001 12.5866 29.0001 15.3466V17.2666H26.3067C25.5601 17.2666 24.8801 17.5599 24.3867 18.0666Z" stroke="#6B4A39" stroke-width="1.5" stroke-linecap="round" stroke-linejoin="round"/>
<path d="M30.4134 18.6265V21.3733C30.4134 22.1066 29.8267 22.7066 29.0801 22.7332H26.4668C25.0268 22.7332 23.7068 21.6799 23.5868 20.2399C23.5068 19.3999 23.8267 18.6132 24.3867 18.0666C24.8801 17.5599 25.5601 17.2666 26.3067 17.2666H29.0801C29.8267 17.2933 30.4134 17.8932 30.4134 18.6265Z" stroke="#6B4A39" stroke-width="1.5" stroke-linecap="round" stroke-linejoin="round"/>
<path d="M12.3334 25.3333C12.3334 26.3333 12.0534 27.28 11.5601 28.08C11.2801 28.56 10.9201 28.9867 10.5068 29.3333C9.57342 30.1733 8.34675 30.6667 7.00008 30.6667C5.05341 30.6667 3.36008 29.6267 2.44008 28.08C1.94675 27.28 1.66675 26.3333 1.66675 25.3333C1.66675 23.6533 2.44008 22.1467 3.66675 21.1733C4.58675 20.44 5.74675 20 7.00008 20C9.94675 20 12.3334 22.3867 12.3334 25.3333Z" stroke="#6B4A39" stroke-width="1.5" stroke-miterlimit="10" stroke-linecap="round" stroke-linejoin="round"/>
<path d="M4.92004 25.3333L6.24003 26.6532L9.08004 24.0266" stroke="#6B4A39" stroke-width="1.5" stroke-linecap="round" stroke-linejoin="round"/>
</svg>
