<svg width="306" height="54" viewBox="0 0 306 54" fill="none" xmlns="http://www.w3.org/2000/svg">
<g filter="url(#filter0_d_2_108)">
<path d="M4.88867 20.25C4.88867 14.3833 6.25534 9.91667 8.98867 6.85C11.7553 3.75 15.7553 2.2 20.9887 2.2C25.8553 2.2 29.5887 3.91667 32.1887 7.35L28.8887 10.05C26.9887 7.55 24.3553 6.3 20.9887 6.3C17.422 6.3 14.6887 7.5 12.7887 9.9C10.922 12.2667 9.98867 15.7167 9.98867 20.25C9.98867 24.9167 10.9553 28.45 12.8887 30.85C14.8553 33.25 17.7387 34.45 21.5387 34.45C24.1387 34.45 26.9553 33.6667 29.9887 32.1L31.3887 35.85C30.1553 36.65 28.6053 37.2833 26.7387 37.75C24.872 38.2167 22.9053 38.45 20.8387 38.45C15.7053 38.45 11.7553 36.8833 8.98867 33.75C6.25534 30.6167 4.88867 26.1167 4.88867 20.25ZM35.841 25.1C35.841 20.9333 36.891 17.6833 38.991 15.35C41.1243 13.0167 44.141 11.85 48.041 11.85C51.941 11.85 54.941 13.0167 57.041 15.35C59.1744 17.6833 60.241 20.9333 60.241 25.1C60.241 29.2667 59.1744 32.5333 57.041 34.9C54.941 37.2333 51.941 38.4 48.041 38.4C44.141 38.4 41.1243 37.2333 38.991 34.9C36.891 32.5333 35.841 29.2667 35.841 25.1ZM40.641 25.1C40.641 28.2333 41.2743 30.6167 42.541 32.25C43.841 33.8833 45.6743 34.7 48.041 34.7C50.4077 34.7 52.2244 33.8833 53.491 32.25C54.791 30.6167 55.441 28.2333 55.441 25.1C55.441 21.9667 54.791 19.6 53.491 18C52.2244 16.3667 50.4077 15.55 48.041 15.55C45.6743 15.55 43.841 16.3667 42.541 18C41.2743 19.6 40.641 21.9667 40.641 25.1ZM63.8449 15.9V12.3H68.3449V8.5C68.3449 5.56667 69.1116 3.41666 70.6449 2.05C72.1783 0.683331 74.1449 -2.5034e-06 76.5449 -2.5034e-06C77.7116 -2.5034e-06 78.7616 0.116665 79.6949 0.349999C80.6283 0.549998 81.6283 0.883331 82.6949 1.35L81.2949 4.65C79.7616 4.05 78.3283 3.75 76.9949 3.75C75.7616 3.75 74.7949 4.13333 74.0949 4.9C73.3949 5.66666 73.0449 6.75 73.0449 8.15V12.3H80.9449V15.9H73.0449V45.8H68.3449V15.9H63.8449ZM82.6926 15.9V12.3H87.1926V8.5C87.1926 5.56667 87.9592 3.41666 89.4926 2.05C91.0259 0.683331 92.9926 -2.5034e-06 95.3926 -2.5034e-06C96.5592 -2.5034e-06 97.6092 0.116665 98.5426 0.349999C99.4759 0.549998 100.476 0.883331 101.543 1.35L100.143 4.65C98.6092 4.05 97.1759 3.75 95.8426 3.75C94.6092 3.75 93.6426 4.13333 92.9426 4.9C92.2426 5.66666 91.8926 6.75 91.8926 8.15V12.3H99.7926V15.9H91.8926V45.8H87.1926V15.9H82.6926ZM102.003 25.1C102.003 20.9 103.053 17.65 105.153 15.35C107.253 13.0167 110.22 11.85 114.053 11.85C117.82 11.85 120.536 12.9833 122.203 15.25C123.903 17.4833 124.753 20.7167 124.753 24.95V25.75H106.803C106.87 28.65 107.553 30.8667 108.853 32.4C110.153 33.9333 112.02 34.7 114.453 34.7C115.786 34.7 117.07 34.55 118.303 34.25C119.536 33.9167 120.903 33.4167 122.403 32.75L123.753 35.95C122.053 36.8167 120.436 37.45 118.903 37.85C117.37 38.2167 115.803 38.4 114.203 38.4C110.336 38.4 107.336 37.2333 105.203 34.9C103.07 32.5667 102.003 29.3 102.003 25.1ZM114.053 15.55C112.086 15.55 110.503 16.1167 109.303 17.25C108.136 18.3833 107.37 20.05 107.003 22.25H119.803C119.57 19.95 118.986 18.2667 118.053 17.2C117.12 16.1 115.786 15.55 114.053 15.55ZM128.956 25.1C128.956 20.9 130.006 17.65 132.106 15.35C134.206 13.0167 137.173 11.85 141.006 11.85C144.773 11.85 147.49 12.9833 149.156 15.25C150.856 17.4833 151.706 20.7167 151.706 24.95V25.75H133.756C133.823 28.65 134.506 30.8667 135.806 32.4C137.106 33.9333 138.973 34.7 141.406 34.7C142.74 34.7 144.023 34.55 145.256 34.25C146.49 33.9167 147.856 33.4167 149.356 32.75L150.706 35.95C149.006 36.8167 147.39 37.45 145.856 37.85C144.323 38.2167 142.756 38.4 141.156 38.4C137.29 38.4 134.29 37.2333 132.156 34.9C130.023 32.5667 128.956 29.3 128.956 25.1ZM141.006 15.55C139.04 15.55 137.456 16.1167 136.256 17.25C135.09 18.3833 134.323 20.05 133.956 22.25H146.756C146.523 19.95 145.94 18.2667 145.006 17.2C144.073 16.1 142.74 15.55 141.006 15.55Z" fill="#C9956B"/>
<path d="M187.559 19.4C189.826 20.0333 191.526 21.05 192.659 22.45C193.826 23.8167 194.409 25.5167 194.409 27.55C194.409 30.8167 193.359 33.3833 191.259 35.25C189.193 37.0833 186.193 38 182.259 38H170.359V2.6H180.809C184.843 2.6 187.876 3.41667 189.909 5.05C191.943 6.68333 192.959 9 192.959 12C192.959 15.5667 191.159 18.0333 187.559 19.4ZM175.109 6.6V17.7H180.809C183.143 17.7 184.909 17.2333 186.109 16.3C187.343 15.3333 187.959 13.9 187.959 12C187.959 8.4 185.576 6.6 180.809 6.6H175.109ZM182.259 34C184.559 34 186.326 33.45 187.559 32.35C188.793 31.25 189.409 29.65 189.409 27.55C189.409 25.6167 188.726 24.1667 187.359 23.2C186.026 22.2 184.076 21.7 181.509 21.7H175.109V34H182.259ZM199.025 25.1C199.025 20.9 200.075 17.65 202.175 15.35C204.275 13.0167 207.241 11.85 211.075 11.85C214.841 11.85 217.558 12.9833 219.225 15.25C220.925 17.4833 221.775 20.7167 221.775 24.95V25.75H203.825C203.891 28.65 204.575 30.8667 205.875 32.4C207.175 33.9333 209.041 34.7 211.475 34.7C212.808 34.7 214.091 34.55 215.325 34.25C216.558 33.9167 217.925 33.4167 219.425 32.75L220.775 35.95C219.075 36.8167 217.458 37.45 215.925 37.85C214.391 38.2167 212.825 38.4 211.225 38.4C207.358 38.4 204.358 37.2333 202.225 34.9C200.091 32.5667 199.025 29.3 199.025 25.1ZM211.075 15.55C209.108 15.55 207.525 16.1167 206.325 17.25C205.158 18.3833 204.391 20.05 204.025 22.25H216.825C216.591 19.95 216.008 18.2667 215.075 17.2C214.141 16.1 212.808 15.55 211.075 15.55ZM225.878 31.05C225.878 28.3167 226.978 26.2 229.178 24.7C231.378 23.2 234.494 22.45 238.528 22.45H242.328V21.45C242.328 19.3167 241.878 17.8 240.978 16.9C240.111 16 238.611 15.55 236.478 15.55C235.111 15.55 233.894 15.6833 232.828 15.95C231.761 16.1833 230.394 16.6667 228.728 17.4L227.328 14.15C230.461 12.6167 233.544 11.85 236.578 11.85C240.211 11.85 242.861 12.6333 244.528 14.2C246.194 15.7333 247.028 18.1833 247.028 21.55V38H243.378C243.344 37.8667 243.278 37.55 243.178 37.05C243.078 36.5167 242.928 35.8333 242.728 35C240.328 37.4 237.528 38.6 234.328 38.6C231.761 38.6 229.711 37.9167 228.178 36.55C226.644 35.1833 225.878 33.35 225.878 31.05ZM230.578 30.95C230.578 32.2167 230.978 33.2 231.778 33.9C232.578 34.5667 233.728 34.9 235.228 34.9C236.561 34.9 237.861 34.6 239.128 34C240.394 33.3667 241.461 32.5167 242.328 31.45V25.95H238.828C236.094 25.95 234.028 26.3667 232.628 27.2C231.261 28.0333 230.578 29.2833 230.578 30.95ZM268.375 11.85C271.108 11.85 273.192 12.6333 274.625 14.2C276.092 15.7667 276.825 18.0333 276.825 21V38H272.125V21.35C272.125 19.3167 271.725 17.85 270.925 16.95C270.158 16.0167 268.908 15.55 267.175 15.55C265.608 15.55 264.175 15.9167 262.875 16.65C261.575 17.35 260.508 18.3333 259.675 19.6V38H254.975V12.3H258.825L259.375 15.9C261.675 13.2 264.675 11.85 268.375 11.85ZM284.61 32.7C286.11 33.3333 287.393 33.8 288.46 34.1C289.56 34.4 290.693 34.55 291.86 34.55C293.36 34.55 294.527 34.2333 295.36 33.6C296.227 32.9667 296.66 32.0333 296.66 30.8C296.66 30.0333 296.427 29.4167 295.96 28.95C295.527 28.45 295.027 28.0833 294.46 27.85C293.927 27.6167 292.91 27.25 291.41 26.75C291.177 26.6833 290.293 26.3833 288.76 25.85C287.227 25.3167 286.043 24.4833 285.21 23.35C284.41 22.2167 284.01 20.8167 284.01 19.15C284.01 17.0833 284.81 15.35 286.41 13.95C288.01 12.55 290.36 11.85 293.46 11.85C294.76 11.85 295.977 12 297.11 12.3C298.277 12.6 299.493 13 300.76 13.5L299.51 17.2C298.41 16.7667 297.377 16.4167 296.41 16.15C295.477 15.8833 294.493 15.75 293.46 15.75C291.893 15.75 290.71 16.0667 289.91 16.7C289.11 17.3 288.71 18.1 288.71 19.1C288.71 20.0333 289.027 20.7333 289.66 21.2C290.293 21.6333 291.31 22.1 292.71 22.6C293.077 22.7 293.41 22.8167 293.71 22.95L294.91 23.4C296.31 23.8667 297.427 24.3333 298.26 24.8C299.127 25.2667 299.86 25.9833 300.46 26.95C301.06 27.8833 301.36 29.1333 301.36 30.7C301.36 33.1667 300.477 35.0833 298.71 36.45C296.977 37.7833 294.71 38.45 291.91 38.45C290.277 38.45 288.76 38.2833 287.36 37.95C285.96 37.5833 284.56 37.1 283.16 36.5L284.61 32.7Z" fill="#6B4A39"/>
</g>
<defs>
<filter id="filter0_d_2_108" x="0.888672" y="-3.8147e-06" width="304.471" height="53.8" filterUnits="userSpaceOnUse" color-interpolation-filters="sRGB">
<feFlood flood-opacity="0" result="BackgroundImageFix"/>
<feColorMatrix in="SourceAlpha" type="matrix" values="0 0 0 0 0 0 0 0 0 0 0 0 0 0 0 0 0 0 127 0" result="hardAlpha"/>
<feOffset dy="4"/>
<feGaussianBlur stdDeviation="2"/>
<feComposite in2="hardAlpha" operator="out"/>
<feColorMatrix type="matrix" values="0 0 0 0 0 0 0 0 0 0 0 0 0 0 0 0 0 0 0.25 0"/>
<feBlend mode="normal" in2="BackgroundImageFix" result="effect1_dropShadow_2_108"/>
<feBlend mode="normal" in="SourceGraphic" in2="effect1_dropShadow_2_108" result="shape"/>
</filter>
</defs>
</svg>
