<svg width="257" height="257" viewBox="0 0 257 257" fill="none" xmlns="http://www.w3.org/2000/svg">
<path d="M203.972 184.012L189.872 243.002" stroke="white" stroke-width="1.875" stroke-miterlimit="10"/>
<path d="M159.254 190.951L185.211 243.002" stroke="white" stroke-width="1.875" stroke-miterlimit="10"/>
<path d="M135.559 222.854L179.009 243.002" stroke="white" stroke-width="1.875" stroke-miterlimit="10"/>
<path d="M50.9477 201.192C51.542 197.531 49.0556 194.081 45.3942 193.486C41.7328 192.892 38.283 195.379 37.6887 199.04C37.0944 202.701 39.5808 206.151 43.2422 206.745C46.9036 207.34 50.3535 204.853 50.9477 201.192Z" stroke="#FF5547" stroke-width="3.75" stroke-miterlimit="10"/>
<path d="M100.573 75.7979C101.85 75.7979 102.886 74.7623 102.886 73.4849C102.886 72.2074 101.85 71.1719 100.573 71.1719C99.2952 71.1719 98.2597 72.2074 98.2597 73.4849C98.2597 74.7623 99.2952 75.7979 100.573 75.7979Z" fill="#FF594B"/>
<g filter="url(#filter0_d_86_794)">
<path d="M201.557 243.962H190.403L213.944 40.2119H225.098C228.285 40.2119 230.563 42.7819 230.186 45.9687L207.964 238.205C207.605 241.392 204.743 243.962 201.557 243.962Z" fill="black"/>
</g>
<g filter="url(#filter1_d_86_794)">
<path d="M105.49 243.962H189.186C192.51 243.962 195.508 241.272 195.903 237.948L218.056 46.2257C218.45 42.9018 216.051 40.2119 212.727 40.2119H129.031C125.707 40.2119 122.709 42.9018 122.315 46.2257L100.161 237.948C99.7845 241.272 102.166 243.962 105.49 243.962Z" fill="#2E4434"/>
</g>
<path d="M106.192 232.996H191.002L212.008 51.1772H127.198L106.192 232.996Z" fill="#A69F9F"/>
<path d="M214.818 129.305C216.308 129.305 217.662 128.089 217.833 126.598L222.87 82.9595C223.042 81.4689 221.962 80.2524 220.472 80.2524C218.981 80.2524 217.628 81.4689 217.456 82.9595L212.419 126.598C212.248 128.089 213.31 129.305 214.818 129.305Z" stroke="#2E4434" stroke-width="1.59" stroke-miterlimit="10"/>
<path d="M219.101 82.9255C219.033 83.5252 219.461 83.9878 220.043 83.9878C220.626 83.9878 221.174 83.5081 221.226 82.9255C221.294 82.3259 220.866 81.8633 220.283 81.8633C219.701 81.8633 219.17 82.3259 219.101 82.9255Z" stroke="#2E4434" stroke-width="1.59" stroke-miterlimit="10"/>
<path d="M165.371 46.6197H180.585C181.185 46.6197 181.716 46.1399 181.768 45.5574C181.836 44.9577 181.408 44.4951 180.825 44.4951H165.611C165.011 44.4951 164.48 44.9749 164.429 45.5574C164.36 46.1571 164.771 46.6197 165.371 46.6197ZM158.74 45.5574C158.62 46.5683 159.34 47.3907 160.351 47.3907C161.362 47.3907 162.27 46.5683 162.39 45.5574C162.51 44.5465 161.79 43.7241 160.779 43.7241C159.768 43.7241 158.843 44.5465 158.74 45.5574Z" fill="black"/>
<path d="M96.0495 140.459L71.1376 139.979L25.1003 139.106L25.3916 136.775L35.6545 57.6709L52.8563 58.0478L61.423 58.2363L81.6746 58.6646L82.2743 58.6818L88.3909 94.9702L90.4983 107.512V107.529L91.1322 111.23L91.7147 114.725L93.1539 123.206L93.8907 127.678L95.6554 138.095L96.0495 140.459Z" fill="#6B4A39"/>
<path d="M61.423 58.2363L59.624 71.172H51.0231L52.8563 58.0479L61.423 58.2363Z" fill="#D7E6FF"/>
<path d="M81.6917 58.5449L71.1376 139.98L96.0495 140.459L82.2743 58.682L81.6917 58.5449Z" fill="#33221A"/>
<path d="M77.4501 94.7435L76.6248 137.723L138.191 138.905L139.016 95.9257L77.4501 94.7435Z" fill="#FBBC05"/>
<path d="M75.8513 94.7284L75.6112 107.233L140.363 108.477L140.603 95.9717L75.8513 94.7284Z" fill="#FBBC05"/>
<path d="M103.742 95.245L102.917 138.225L111.91 138.397L112.735 95.4177L103.742 95.245Z" fill="white"/>
<path opacity="0.26" d="M138.626 116.318L77.1685 109.739L77.2028 107.272L138.78 108.454L138.626 116.318Z" fill="black"/>
<path d="M167.273 145.719C168.232 145.634 168.763 144.571 168.249 143.749C162.732 135.114 154.44 110.51 128.089 112.018C105.713 113.303 79.927 115.736 68.4477 116.867C66.4602 117.055 65.8605 119.659 67.5567 120.705L70.5379 122.572C72.8509 124.011 75.558 124.662 78.2651 124.44L99.0821 122.709C103.897 122.315 108.523 124.68 110.99 128.826L130.556 161.67C130.813 162.099 131.276 162.339 131.772 162.287L167.273 145.719Z" fill="#FFE3C8"/>
<path d="M71.6002 136.707C95.7753 125.793 112.463 121.63 121.749 120.054C126.581 119.231 131.224 122.298 132.355 127.078L135.216 139.294C136.501 144.811 132.595 150.191 126.958 150.654L69.2872 155.451C68.4819 155.52 67.6595 155.485 66.8714 155.331L7.00754 144.537C5.25994 144.229 4.54034 142.121 5.72254 140.802C7.2474 139.106 13.1755 136.142 18.2299 136.484C26.6937 137.067 59.1271 137.461 67.6595 137.564C69.0302 137.547 70.3666 137.273 71.6002 136.707ZM161.396 131.636L181.425 165.919C181.425 165.919 168.386 188.792 139.208 185.914L127.609 156.685L161.396 131.636Z" fill="#FFE3C8"/>
<path d="M178.118 177.398C178.118 177.398 175.411 182.367 163.418 187.353M132.663 182.367C132.663 182.367 136.501 190.951 140.356 190.505M158.004 192.767C158.004 192.767 164.514 191.842 170.391 188.21" stroke="#6B4A39" stroke-width="1.875" stroke-miterlimit="10"/>
<path d="M135.148 82.0342L135.696 79.3271L135.867 80.2866L133.931 75.4378H135.456L136.93 79.1386H136.004L138.986 75.4207H140.562L136.707 80.2694L137.221 79.2928L136.673 81.9999L135.148 82.0342ZM143.029 82.137C142.361 82.137 141.795 82.017 141.299 81.7772C140.819 81.5373 140.442 81.1946 140.185 80.7663C139.928 80.338 139.791 79.8411 139.791 79.2757C139.791 78.7103 139.894 78.1963 140.082 77.6994C140.271 77.2197 140.545 76.7914 140.922 76.4487C141.281 76.0889 141.71 75.8148 142.207 75.6092C142.704 75.4036 143.269 75.3008 143.869 75.3008C144.537 75.3008 145.102 75.4207 145.599 75.6606C146.079 75.9004 146.456 76.2431 146.713 76.6714C146.97 77.0998 147.107 77.5967 147.107 78.1621C147.107 78.7275 147.004 79.2414 146.816 79.7383C146.627 80.218 146.336 80.6464 145.976 80.9891C145.616 81.3489 145.188 81.623 144.691 81.8286C144.194 82.0342 143.629 82.137 143.029 82.137ZM143.149 80.8348C143.526 80.8348 143.851 80.7663 144.16 80.6292C144.451 80.4922 144.708 80.3037 144.914 80.0638C145.119 79.824 145.274 79.5498 145.393 79.2414C145.496 78.933 145.565 78.6075 145.565 78.2648C145.565 77.9393 145.496 77.648 145.359 77.4082C145.222 77.1512 145.017 76.9627 144.742 76.8256C144.468 76.6886 144.143 76.6201 143.766 76.6201C143.389 76.6201 143.063 76.6886 142.772 76.8256C142.481 76.9627 142.224 77.1512 142.018 77.3911C141.813 77.6309 141.641 77.905 141.538 78.2134C141.436 78.5218 141.367 78.8645 141.367 79.1901C141.367 79.5156 141.436 79.8069 141.573 80.0467C141.71 80.3037 141.915 80.4922 142.19 80.6292C142.447 80.7834 142.772 80.8348 143.149 80.8348ZM150.671 82.137C150.019 82.137 149.488 82.0171 149.077 81.7601C148.649 81.5031 148.358 81.1604 148.169 80.7149C147.981 80.2694 147.963 79.7383 148.083 79.1215L148.82 75.4207H150.362L149.625 79.0872C149.574 79.3785 149.557 79.6355 149.574 79.8582C149.608 80.081 149.66 80.2694 149.762 80.4065C149.865 80.5436 150.002 80.6635 150.191 80.7321C150.379 80.8006 150.585 80.8348 150.842 80.8348C151.15 80.8348 151.407 80.7835 151.647 80.6464C151.87 80.5265 152.058 80.338 152.213 80.081C152.367 79.824 152.487 79.4813 152.555 79.0872L153.292 75.4207H154.783L154.029 79.1729C153.84 80.1495 153.463 80.8862 152.898 81.3831C152.332 81.8971 151.579 82.137 150.671 82.137ZM154.971 82.0342L156.29 75.4378H158.98C159.803 75.4378 160.437 75.6263 160.882 75.9861C161.327 76.3459 161.55 76.8428 161.55 77.4938C161.55 78.0421 161.413 78.5219 161.156 78.9331C160.899 79.3443 160.522 79.6527 160.042 79.8754C159.563 80.0981 158.997 80.2009 158.346 80.2009H156.205L157.01 79.5327L156.513 82.0513L154.971 82.0342ZM156.976 79.6869L156.444 78.9673H158.415C158.929 78.9673 159.323 78.8474 159.597 78.6246C159.871 78.3848 160.008 78.0592 160.008 77.6138C160.008 77.2882 159.905 77.0484 159.683 76.8942C159.46 76.74 159.169 76.6543 158.775 76.6543H156.924L157.729 75.9004L156.976 79.6869ZM159.22 82.0342L157.867 79.6355H159.46L160.813 82.0342H159.22ZM167.992 82.137C167.324 82.137 166.759 82.017 166.262 81.7772C165.782 81.5373 165.405 81.1946 165.148 80.7663C164.891 80.338 164.754 79.8411 164.754 79.2757C164.754 78.7103 164.857 78.1963 165.045 77.6994C165.234 77.2197 165.508 76.7914 165.885 76.4487C166.245 76.0889 166.673 75.8148 167.17 75.6092C167.667 75.4036 168.232 75.3008 168.832 75.3008C169.5 75.3008 170.065 75.4207 170.562 75.6606C171.042 75.9004 171.419 76.2431 171.676 76.6714C171.933 77.0998 172.07 77.5967 172.07 78.1621C172.07 78.7275 171.967 79.2414 171.779 79.7383C171.59 80.218 171.299 80.6464 170.939 80.9891C170.579 81.3489 170.151 81.623 169.654 81.8286C169.157 82.0342 168.592 82.137 167.992 82.137ZM168.112 80.8348C168.489 80.8348 168.815 80.7663 169.123 80.6292C169.414 80.4922 169.671 80.3037 169.877 80.0638C170.083 79.824 170.237 79.5498 170.357 79.2414C170.46 78.933 170.528 78.6075 170.528 78.2648C170.528 77.9393 170.46 77.648 170.322 77.4082C170.185 77.1512 169.98 76.9627 169.706 76.8256C169.432 76.6886 169.106 76.6201 168.729 76.6201C168.352 76.6201 168.027 76.6886 167.735 76.8256C167.444 76.9627 167.187 77.1512 166.981 77.3911C166.776 77.6309 166.605 77.905 166.502 78.2134C166.399 78.5218 166.33 78.8645 166.33 79.1901C166.33 79.5156 166.399 79.8069 166.536 80.0467C166.673 80.3037 166.879 80.4922 167.153 80.6292C167.41 80.7834 167.735 80.8348 168.112 80.8348ZM172.516 82.0342L173.835 75.4378H176.525C177.347 75.4378 177.981 75.6263 178.427 75.9861C178.872 76.3459 179.095 76.8428 179.095 77.4938C179.095 78.0421 178.958 78.5219 178.701 78.9331C178.444 79.3443 178.067 79.6527 177.587 79.8754C177.107 80.0981 176.542 80.2009 175.891 80.2009H173.749L174.554 79.5327L174.058 82.0513L172.516 82.0342ZM174.52 79.6869L173.989 78.9673H175.959C176.473 78.9673 176.867 78.8474 177.142 78.6246C177.416 78.3848 177.553 78.0592 177.553 77.6138C177.553 77.2882 177.45 77.0484 177.227 76.8942C177.004 76.74 176.713 76.6543 176.319 76.6543H174.469L175.274 75.9004L174.52 79.6869ZM176.765 82.0342L175.411 79.6355H177.004L178.358 82.0342H176.765ZM179.437 82.0342L180.757 75.4378H183.515C184.2 75.4378 184.783 75.5406 185.263 75.7805C185.742 76.0204 186.119 76.3288 186.376 76.74C186.633 77.1512 186.77 77.648 186.77 78.2134C186.77 78.796 186.668 79.3271 186.479 79.7897C186.274 80.2523 185.999 80.6635 185.64 81.0062C185.28 81.3488 184.834 81.6058 184.338 81.7772C183.841 81.9656 183.275 82.0513 182.676 82.0513L179.437 82.0342ZM181.219 80.7834H182.71C183.241 80.7834 183.704 80.6806 184.081 80.4579C184.457 80.2352 184.749 79.9439 184.937 79.567C185.143 79.19 185.228 78.7617 185.228 78.282C185.228 77.9564 185.16 77.6823 185.023 77.4424C184.886 77.2026 184.68 77.0312 184.406 76.8942C184.115 76.7571 183.789 76.7057 183.361 76.7057H182.042L181.219 80.7834ZM188.981 80.8006H192.579L192.322 82.0342H187.216L188.535 75.4378H193.521L193.264 76.6714H189.803L188.981 80.8006ZM189.426 78.0935H192.596L192.356 79.2757H189.186L189.426 78.0935ZM193.538 82.0342L194.857 75.4378H197.547C198.37 75.4378 199.004 75.6263 199.449 75.9861C199.895 76.3459 200.117 76.8428 200.117 77.4938C200.117 78.0421 199.98 78.5219 199.723 78.9331C199.466 79.3443 199.089 79.6527 198.61 79.8754C198.13 80.0981 197.564 80.2009 196.913 80.2009H194.772L195.577 79.5327L195.08 82.0513L193.538 82.0342ZM195.543 79.6869L195.012 78.9673H196.982C197.496 78.9673 197.89 78.8474 198.164 78.6246C198.438 78.3848 198.575 78.0592 198.575 77.6138C198.575 77.2882 198.473 77.0484 198.25 76.8942C198.027 76.74 197.736 76.6543 197.342 76.6543H195.491L196.297 75.9004L195.543 79.6869ZM197.787 82.0342L196.434 79.6355H198.027L199.381 82.0342H197.787Z" fill="#6B4A39"/>
<path d="M10.3143 111.641C14.4021 111.641 17.7159 108.327 17.7159 104.239C17.7159 100.151 14.4021 96.8374 10.3143 96.8374C6.22648 96.8374 2.91267 100.151 2.91267 104.239C2.91267 108.327 6.22648 111.641 10.3143 111.641Z" fill="#FBBC05"/>
<path d="M89.0762 41.9939C85.2897 42.9191 84.5359 43.673 83.5935 47.4766C82.6683 43.6901 81.9145 42.9362 78.1109 41.9939C81.8973 41.0687 82.6512 40.3148 83.5935 36.5112C84.5187 40.3148 85.2726 41.0687 89.0762 41.9939Z" fill="#FBBC05"/>
<defs>
<filter id="filter0_d_86_794" x="186.403" y="40.2119" width="47.8244" height="211.75" filterUnits="userSpaceOnUse" color-interpolation-filters="sRGB">
<feFlood flood-opacity="0" result="BackgroundImageFix"/>
<feColorMatrix in="SourceAlpha" type="matrix" values="0 0 0 0 0 0 0 0 0 0 0 0 0 0 0 0 0 0 127 0" result="hardAlpha"/>
<feOffset dy="4"/>
<feGaussianBlur stdDeviation="2"/>
<feComposite in2="hardAlpha" operator="out"/>
<feColorMatrix type="matrix" values="0 0 0 0 0 0 0 0 0 0 0 0 0 0 0 0 0 0 0.25 0"/>
<feBlend mode="normal" in2="BackgroundImageFix" result="effect1_dropShadow_86_794"/>
<feBlend mode="normal" in="SourceGraphic" in2="effect1_dropShadow_86_794" result="shape"/>
</filter>
<filter id="filter1_d_86_794" x="96.1222" y="40.2119" width="125.976" height="211.75" filterUnits="userSpaceOnUse" color-interpolation-filters="sRGB">
<feFlood flood-opacity="0" result="BackgroundImageFix"/>
<feColorMatrix in="SourceAlpha" type="matrix" values="0 0 0 0 0 0 0 0 0 0 0 0 0 0 0 0 0 0 127 0" result="hardAlpha"/>
<feOffset dy="4"/>
<feGaussianBlur stdDeviation="2"/>
<feComposite in2="hardAlpha" operator="out"/>
<feColorMatrix type="matrix" values="0 0 0 0 0 0 0 0 0 0 0 0 0 0 0 0 0 0 0.25 0"/>
<feBlend mode="normal" in2="BackgroundImageFix" result="effect1_dropShadow_86_794"/>
<feBlend mode="normal" in="SourceGraphic" in2="effect1_dropShadow_86_794" result="shape"/>
</filter>
</defs>
</svg>
