<svg width="32" height="32" viewBox="0 0 32 32" fill="none" xmlns="http://www.w3.org/2000/svg">
<path d="M23.6666 9.40004C23.3466 9.34671 23.0133 9.33339 22.6666 9.33339H9.3333C8.95996 9.33339 8.59996 9.36005 8.2533 9.41339C8.43996 9.04005 8.70663 8.69343 9.02663 8.37343L13.36 4.02675C15.1866 2.21341 18.1466 2.21341 19.9733 4.02675L22.3066 6.38669C23.16 7.22669 23.6133 8.29337 23.6666 9.40004Z" stroke="#C9956B" stroke-width="1.5" stroke-linecap="round" stroke-linejoin="round"/>
<path d="M29.3333 16.6667H25.3333C23.8666 16.6667 22.6666 17.8667 22.6666 19.3334C22.6666 20.8001 23.8666 22.0001 25.3333 22.0001H29.3333" stroke="#C9956B" stroke-width="1.5" stroke-linecap="round" stroke-linejoin="round"/>
<path d="M12 25.3333C12 26.3333 11.72 27.28 11.2267 28.08C10.3067 29.6267 8.61337 30.6667 6.66671 30.6667C4.72004 30.6667 3.02671 29.6267 2.10671 28.08C1.61337 27.28 1.33337 26.3333 1.33337 25.3333C1.33337 22.3867 3.72004 20 6.66671 20C9.61337 20 12 22.3867 12 25.3333Z" stroke="#6B4A39" stroke-width="1.5" stroke-miterlimit="10" stroke-linecap="round" stroke-linejoin="round"/>
<path d="M8.65339 25.3066H4.68005" stroke="#6B4A39" stroke-width="1.5" stroke-miterlimit="10" stroke-linecap="round" stroke-linejoin="round"/>
<path d="M6.66675 23.3601V27.3468" stroke="#6B4A39" stroke-width="1.5" stroke-miterlimit="10" stroke-linecap="round" stroke-linejoin="round"/>
<path d="M29.3333 15.9999V22.6666C29.3333 26.6666 26.6666 29.3333 22.6666 29.3333H10.1733C10.5866 28.9866 10.9466 28.5599 11.2266 28.0799C11.72 27.2799 12 26.3333 12 25.3333C12 22.3866 9.61329 19.9999 6.66663 19.9999C5.06663 19.9999 3.63996 20.7066 2.66663 21.8132V15.9999C2.66663 12.3733 4.85329 9.83992 8.25329 9.41325C8.59996 9.35992 8.95996 9.33325 9.33329 9.33325H22.6666C23.0133 9.33325 23.3466 9.34657 23.6666 9.3999C27.1066 9.7999 29.3333 12.3466 29.3333 15.9999Z" stroke="#6B4A39" stroke-width="1.5" stroke-linecap="round" stroke-linejoin="round"/>
</svg>
